PathFileType	4	(X/Y/Z)	 2.8Hzhigh3min.trc
DataRate	CameraRate	NumFrames	NumMarkers	Units	OrigDataRate	OrigDataStartFrame	OrigNumFrames
200	200	9	35	m	200	126	1000
Frame#	Time	C7			LSH			RSH			MAN			RASI			LASI			HIPR			HIPL			RPSI			LPSI			COX			RTHI1			RTHI2			RTHI3			RTHI4			RSHA1			RSHA2			RSHA3			RSHA4			RHEEL			RMET5			RMET1			RTOE			LTHI1			LTHI2			LTHI3			LTHI4			LSHA1			LSHA2			LSHA3			LSHA4			LHEEL			LMET5			LMET1			LTOE			
		X1	Y1	Z1	X2	Y2	Z2	X3	Y3	Z3	X4	Y4	Z4	X5	Y5	Z5	X6	Y6	Z6	X7	Y7	Z7	X8	Y8	Z8	X9	Y9	Z9	X10	Y10	Z10	X11	Y11	Z11	X12	Y12	Z12	X13	Y13	Z13	X14	Y14	Z14	X15	Y15	Z15	X16	Y16	Z16	X17	Y17	Z17	X18	Y18	Z18	X19	Y19	Z19	X20	Y20	Z20	X21	Y21	Z21	X22	Y22	Z22	X23	Y23	Z23	X24	Y24	Z24	X25	Y25	Z25	X26	Y26	Z26	X27	Y27	Z27	X28	Y28	Z28	X29	Y29	Z29	X30	Y30	Z30	X31	Y31	Z31	X32	Y32	Z32	X33	Y33	Z33	X34	Y34	Z34	X35	Y35	Z35	
126	0.6300	-0.328180	1.366804	-0.569606	-0.290842	1.338271	-0.742620	-0.288975	1.350302	-0.394333	-0.207220	1.322754	-0.568780	-0.202733	0.928389	-0.477118	-0.202553	0.935952	-0.661087	-0.273106	0.967523	-0.431029	-0.270964	0.977951	-0.701283	-0.351343	0.960929	-0.504760	-0.351905	0.965140	-0.617634	-0.355021	0.975825	-0.564054	-0.286923	0.757487	-0.400027	-0.269244	0.700238	-0.396874	-0.207313	0.714571	-0.409668	-0.216884	0.775101	-0.413820	-0.292407	0.328105	-0.383996	-0.315396	0.293190	-0.382409	-0.267117	0.268411	-0.409915	-0.249661	0.304898	-0.413287	-0.439819	0.106831	-0.426490	-0.295960	0.030285	-0.379212	-0.269931	0.031967	-0.457611	-0.243623	0.023661	-0.450358	-0.277024	0.726376	-0.743124	-0.259436	0.667294	-0.740486	-0.198251	0.680057	-0.722355	-0.208136	0.738925	-0.723859	-0.343419	0.306443	-0.739001	-0.363059	0.271128	-0.736769	-0.305505	0.247285	-0.727216	-0.292625	0.289460	-0.731526	-0.448796	0.110902	-0.688143	-0.308725	0.028307	-0.742441	-0.276641	0.030860	-0.667463	-0.254214	0.022591	-0.674612	
127	0.6350	-0.328262	1.366364	-0.569769	-0.290476	1.337202	-0.742994	-0.289196	1.349366	-0.394195	-0.207140	1.321680	-0.568765	-0.202023	0.928237	-0.477212	-0.202277	0.935890	-0.661392	-0.272572	0.967243	-0.430807	-0.271375	0.977488	-0.701475	-0.350903	0.960576	-0.504431	-0.351761	0.964827	-0.617150	-0.354778	0.975485	-0.563649	-0.286450	0.757450	-0.400056	-0.268864	0.700152	-0.396884	-0.206927	0.714381	-0.409670	-0.216378	0.774932	-0.413833	-0.292560	0.327755	-0.384033	-0.315549	0.292809	-0.382466	-0.267194	0.268041	-0.410174	-0.249787	0.304506	-0.413491	-0.440013	0.106533	-0.426843	-0.296057	0.030259	-0.379241	-0.269917	0.031929	-0.457704	-0.243575	0.023653	-0.450420	-0.277071	0.726312	-0.743098	-0.259449	0.667233	-0.740489	-0.198228	0.680036	-0.722513	-0.208147	0.738892	-0.724009	-0.343714	0.306308	-0.738887	-0.363384	0.271013	-0.736560	-0.305808	0.247120	-0.727233	-0.292913	0.289280	-0.731615	-0.448861	0.110800	-0.687921	-0.308804	0.028256	-0.742436	-0.276621	0.030838	-0.667423	-0.254180	0.022574	-0.674596	
128	0.6400	-0.328378	1.366525	-0.569942	-0.290156	1.336828	-0.743313	-0.289422	1.349085	-0.394137	-0.207117	1.321279	-0.568764	-0.201280	0.928890	-0.477344	-0.201943	0.936655	-0.661529	-0.271766	0.968102	-0.430689	-0.271449	0.978208	-0.701435	-0.350317	0.960991	-0.504157	-0.351445	0.965280	-0.616704	-0.354447	0.975863	-0.563290	-0.285983	0.757975	-0.400089	-0.268486	0.700647	-0.396842	-0.206534	0.714757	-0.409639	-0.215879	0.775324	-0.413860	-0.292924	0.328133	-0.383962	-0.315786	0.292892	-0.382619	-0.267360	0.268250	-0.410250	-0.250030	0.304727	-0.413490	-0.439949	0.106642	-0.427239	-0.296107	0.030283	-0.379299	-0.269867	0.031902	-0.457751	-0.243529	0.023649	-0.450462	-0.277053	0.726895	-0.743155	-0.259389	0.667826	-0.740550	-0.198151	0.680678	-0.722663	-0.208113	0.739522	-0.724165	-0.344065	0.306703	-0.738772	-0.363703	0.271380	-0.736353	-0.306052	0.247549	-0.727312	-0.293232	0.289711	-0.731762	-0.448627	0.111147	-0.687616	-0.308824	0.028263	-0.742376	-0.276542	0.030823	-0.667414	-0.254129	0.022560	-0.674589	
129	0.6450	-0.328524	1.367298	-0.570132	-0.289896	1.337140	-0.743601	-0.289652	1.349489	-0.394154	-0.207150	1.321588	-0.568778	-0.200513	0.930279	-0.477481	-0.201544	0.938172	-0.661521	-0.270740	0.969892	-0.430644	-0.271188	0.979967	-0.701171	-0.349630	0.962074	-0.503922	-0.351013	0.966383	-0.616318	-0.354017	0.976867	-0.562968	-0.285503	0.759080	-0.400070	-0.268101	0.701712	-0.396737	-0.206132	0.715698	-0.409584	-0.215379	0.776276	-0.413875	-0.293470	0.329160	-0.383818	-0.316094	0.293444	-0.382861	-0.267602	0.269037	-0.410146	-0.250369	0.305578	-0.413303	-0.439648	0.107200	-0.427664	-0.296097	0.030358	-0.379378	-0.269783	0.031887	-0.457750	-0.243487	0.023649	-0.450486	-0.276995	0.728143	-0.743271	-0.259305	0.669087	-0.740669	-0.198060	0.681966	-0.722842	-0.208046	0.740800	-0.724340	-0.344447	0.307610	-0.738674	-0.364001	0.272226	-0.736181	-0.306231	0.248563	-0.727460	-0.293551	0.290731	-0.731967	-0.448101	0.111941	-0.687264	-0.308783	0.028327	-0.742271	-0.276416	0.030819	-0.667435	-0.254067	0.022550	-0.674590	
130	0.6500	-0.328691	1.368691	-0.570329	-0.289696	1.338125	-0.743873	-0.289888	1.350590	-0.394219	-0.207247	1.322641	-0.568805	-0.199733	0.932321	-0.477601	-0.201084	0.940352	-0.661403	-0.269593	0.972355	-0.430643	-0.270655	0.982549	-0.700714	-0.348885	0.963724	-0.503701	-0.350490	0.968075	-0.615996	-0.353523	0.978445	-0.562682	-0.284996	0.760759	-0.399984	-0.267704	0.703351	-0.396577	-0.205719	0.717193	-0.409511	-0.214848	0.777782	-0.413870	-0.294161	0.330626	-0.383655	-0.316449	0.294452	-0.383174	-0.267909	0.270384	-0.409875	-0.250783	0.307029	-0.412945	-0.439082	0.108167	-0.428049	-0.296017	0.030481	-0.379477	-0.269666	0.031884	-0.457701	-0.243450	0.023655	-0.450490	-0.276938	0.730029	-0.743413	-0.259247	0.670978	-0.740841	-0.197986	0.683843	-0.723084	-0.207962	0.742678	-0.724553	-0.344849	0.309003	-0.738609	-0.364274	0.273534	-0.736053	-0.306356	0.250104	-0.727683	-0.293873	0.292306	-0.732236	-0.447297	0.113148	-0.686905	-0.308676	0.028443	-0.742134	-0.276252	0.030828	-0.667491	-0.254000	0.022545	-0.674603	
131	0.6550	-0.328867	1.370697	-0.570527	-0.289546	1.339764	-0.744134	-0.290153	1.352372	-0.394308	-0.207406	1.324438	-0.568845	-0.198955	0.934917	-0.477686	-0.200570	0.943103	-0.661213	-0.268410	0.975263	-0.430659	-0.269906	0.985742	-0.700145	-0.348103	0.965879	-0.503480	-0.349886	0.970299	-0.615717	-0.352951	0.980573	-0.562412	-0.284459	0.763019	-0.399856	-0.267302	0.705556	-0.396379	-0.205299	0.719223	-0.409426	-0.214276	0.779825	-0.413849	-0.294957	0.332520	-0.383446	-0.316864	0.295935	-0.383453	-0.268245	0.272267	-0.409468	-0.251250	0.309033	-0.412414	-0.438272	0.109573	-0.428449	-0.295868	0.030652	-0.379593	-0.269516	0.031897	-0.457608	-0.243421	0.023666	-0.450475	-0.276907	0.732504	-0.743559	-0.259262	0.673444	-0.741056	-0.197952	0.686234	-0.723406	-0.207874	0.745089	-0.724816	-0.345281	0.310848	-0.738602	-0.364525	0.275278	-0.735978	-0.306439	0.252139	-0.727990	-0.294204	0.294396	-0.732581	-0.446226	0.114732	-0.686586	-0.308502	0.028606	-0.741983	-0.276061	0.030855	-0.667585	-0.253935	0.022546	-0.674629	
132	0.6600	-0.329039	1.373291	-0.570712	-0.289447	1.342029	-0.744377	-0.290459	1.354800	-0.394418	-0.207622	1.326949	-0.568892	-0.198187	0.937983	-0.477735	-0.200007	0.946344	-0.660985	-0.267290	0.978471	-0.430676	-0.269036	0.989344	-0.699535	-0.347282	0.968512	-0.503263	-0.349211	0.973014	-0.615455	-0.352297	0.983192	-0.562148	-0.283892	0.765823	-0.399673	-0.266915	0.708302	-0.396154	-0.204884	0.721761	-0.409333	-0.213670	0.782379	-0.413814	-0.295821	0.334806	-0.383186	-0.317337	0.297883	-0.383623	-0.268581	0.274640	-0.408939	-0.251750	0.311533	-0.411766	-0.437221	0.111375	-0.428854	-0.295647	0.030870	-0.379727	-0.269330	0.031926	-0.457470	-0.243398	0.023680	-0.450437	-0.276912	0.735513	-0.743702	-0.259377	0.676413	-0.741297	-0.197995	0.689049	-0.723800	-0.207797	0.747950	-0.725128	-0.345743	0.313103	-0.738657	-0.364767	0.277406	-0.735970	-0.306488	0.254636	-0.728406	-0.294550	0.296957	-0.733017	-0.444901	0.116650	-0.686336	-0.308264	0.028811	-0.741831	-0.275848	0.030901	-0.667718	-0.253877	0.022558	-0.674673	
133	0.6650	-0.329211	1.376422	-0.570881	-0.289399	1.344887	-0.744588	-0.290799	1.357816	-0.394542	-0.207881	1.330113	-0.568944	-0.197434	0.941442	-0.477757	-0.199400	0.950006	-0.660738	-0.266285	0.981892	-0.430675	-0.268130	0.993242	-0.698953	-0.346419	0.971589	-0.503073	-0.348474	0.976172	-0.615203	-0.351576	0.986260	-0.561892	-0.283306	0.769155	-0.399435	-0.266565	0.711553	-0.395910	-0.204498	0.724750	-0.409234	-0.213042	0.785396	-0.413766	-0.296714	0.337447	-0.382870	-0.317841	0.300252	-0.383662	-0.268894	0.277456	-0.408310	-0.252259	0.314480	-0.411026	-0.435955	0.113524	-0.429210	-0.295353	0.031130	-0.379878	-0.269103	0.031979	-0.457291	-0.243379	0.023698	-0.450374	-0.276951	0.738982	-0.743838	-0.259600	0.679818	-0.741552	-0.198124	0.692228	-0.724246	-0.207732	0.751184	-0.725476	-0.346246	0.315708	-0.738775	-0.364994	0.279866	-0.736030	-0.306499	0.257552	-0.728939	-0.294912	0.299944	-0.733555	-0.443337	0.118868	-0.686181	-0.307960	0.029052	-0.741686	-0.275625	0.030961	-0.667889	-0.253835	0.022577	-0.674740	
134	0.6700	-0.329382	1.380021	-0.571024	-0.289402	1.348286	-0.744750	-0.291204	1.361365	-0.394673	-0.208170	1.333853	-0.568998	-0.196699	0.945240	-0.477772	-0.198755	0.954023	-0.660489	-0.265422	0.985523	-0.430659	-0.267289	0.997368	-0.698446	-0.345523	0.975067	-0.502920	-0.347679	0.979742	-0.614967	-0.350826	0.989739	-0.561666	-0.282731	0.772952	-0.399186	-0.266274	0.715269	-0.395654	-0.204160	0.728150	-0.409122	-0.212405	0.788828	-0.413720	-0.297616	0.340439	-0.382493	-0.318356	0.302998	-0.383548	-0.269164	0.280662	-0.407598	-0.252775	0.317806	-0.410236	-0.434449	0.115952	-0.429519	-0.294985	0.031431	-0.380048	-0.268836	0.032056	-0.457072	-0.243367	0.023723	-0.450284	-0.277020	0.742842	-0.743975	-0.259922	0.683593	-0.741818	-0.198321	0.695709	-0.724724	-0.207677	0.754733	-0.725849	-0.346801	0.318602	-0.738963	-0.365209	0.282587	-0.736155	-0.306471	0.260815	-0.729596	-0.295306	0.303298	-0.734193	-0.441539	0.121335	-0.686135	-0.307591	0.029328	-0.741552	-0.275394	0.031038	-0.668103	-0.253810	0.022608	-0.674840	
